<svg xmlns="http://www.w3.org/2000/svg" data-name="Layer 1" viewBox="0 0 100 125" x="0px" y="0px"><title>Hipster</title><path d="M13.57,62.37c-.2.72-.36,1.22-.36,1.22A2.54,2.54,0,0,0,13.57,62.37Z"/><path d="M86.43,62.37a2.54,2.54,0,0,0,.36,1.22S86.63,63.09,86.43,62.37Z"/><path d="M87.65,8.17S84.7,22.88,82,33.06s-11.65,6.62-14,6-7.73-6-11.53-7.24c-2.56-.82-5.06,1.46-6.5,3.23-1.44-1.77-3.94-4.05-6.5-3.23-3.8,1.23-9.2,6.63-11.53,7.24s-11.28,4.17-14-6S12.35,8.17,12.35,8.17s-.12,4.41-.73,5.88-2.09,7.48-1.47,9.08,1.47,3.31.61,4.9.37,5.64.37,5.64-.62,9.69.61,11.9l.61-2.21s.74,5.89,1,8.71a67.39,67.39,0,0,1,.24,10.3,25.83,25.83,0,0,0,.87-4.17s.61,8.09,3.31,10.79V65.92S21.06,74,26,78.06l-.62-2.45s5.52,5.27,8.71,7.11l-.37-2.2L45.46,89l-.86-2.33L50,91.83l5.4-5.18L54.54,89l11.77-8.46-.37,2.2c3.19-1.84,8.71-7.11,8.71-7.11L74,78.06c4.91-4,8.22-12.14,8.22-12.14V69c2.7-2.7,3.31-10.79,3.31-10.79a25.83,25.83,0,0,0,.87,4.17,67.39,67.39,0,0,1,.24-10.3c.24-2.82,1-8.71,1-8.71l.61,2.21c1.23-2.21.61-11.9.61-11.9s1.23-4,.37-5.64,0-3.31.61-4.9-.85-7.61-1.47-9.08S87.65,8.17,87.65,8.17ZM61.28,52.8v1.47l-2.82,1v1.84H54.78l-2.57,2.58-1.35-2.09-.86.47-.86-.47-1.35,2.09-2.57-2.58H41.54V55.25l-2.82-1V52.8l-5.15-1.35a23.28,23.28,0,0,0,8-8.21l.86,1,2.45-2L46,43.73l2-1.47,1.34.85.74-.68.74.68,1.34-.85,2,1.47,1.1-1.47,2.45,2,.86-1a35.66,35.66,0,0,0,8,8.21Z"/></svg>
