<svg xmlns="http://www.w3.org/2000/svg" xmlns:xlink="http://www.w3.org/1999/xlink" version="1.1" x="0px" y="0px" viewBox="0 0 100 125" enable-background="new 0 0 100 100" xml:space="preserve"><polygon points="29.802,61.875 34.536,57.065 32.687,63.431 40.013,63.133 33.87,67.496 40.529,72.601 32.759,71.196 34.759,76.526   30.393,72.824 27.288,78.893 25.511,71.566 18.702,74.084 22.623,69.349 17.222,68.608 22.772,66.757 17.741,60.987 25.954,62.909   26.839,55.881 "/><path d="M82.195,25.963c-0.392-1.667-1.564-3.17-3.219-3.72c-3.479-0.99-10.833-0.99-14.311,0c-1.655,0.55-2.828,2.053-3.221,3.72  c-0.461,2.263-0.461,4.603,0,6.865c0.393,1.667,1.565,3.17,3.221,3.72c0.778,0.222,1.754,0.392,2.837,0.517  c0.021,0.57-0.225,1.441-1.343,2.562c-1.582,1.586,1.905,0.576,3.215-0.219c1.082-0.656,2.133-1.314,3.115-2.125  c2.478-0.037,4.891-0.281,6.486-0.735c1.654-0.55,2.827-2.053,3.219-3.72C82.655,30.565,82.655,28.226,82.195,25.963z"/><g><g><path d="M72.332,58.574c3.25-1.272,7.207,0.533,7.088,3.418c1.979,0.456,3.169,1.531,3.547,3.241c0,0.25,0,0.501,0,0.749    c-0.343,1.728-1.601,2.736-3.456,3.276c-0.047,2.312-1.976,3.998-4.861,3.989c-1.248-0.003-2.112-0.347-2.909-0.784    c-0.758,0.527-1.62,0.959-2.864,1.035c-2.405,0.141-3.949-0.999-4.817-2.138c-3.374,0.402-5.429-1.096-5.906-3.313    c0-0.25,0-0.499,0-0.749c0.159-0.871,0.605-1.521,1.135-2.101c-1.6-2.762,1.027-5.577,4.637-5.379    c0.617-1.487,1.971-2.397,4.136-2.67c0.27,0,0.545,0,0.816,0C70.463,57.259,71.558,57.945,72.332,58.574z"/></g><circle cx="78.444" cy="74.574" r="0.999"/><circle cx="80.371" cy="75.894" r="0.709"/><circle cx="82.026" cy="77.113" r="0.511"/></g><g><g><path d="M52.445,84.986c0,1.1-0.9,2-2,2h-0.668c-1.1,0-2-0.9-2-2v-71.39c0-1.1,0.9-2,2-2h0.668c1.1,0,2,0.9,2,2V84.986z"/></g><g><g><g><g><path d="M7.944,87.258c-1.1,0-2-0.9-2-2V84.59c0-1.1,0.9-2,2-2h83.889c1.1,0,2,0.9,2,2v0.668c0,1.1-0.9,2-2,2H7.944z"/></g><g><path d="M10.612,85.008c0,1.1-0.9,2-2,2H7.944c-1.1,0-2-0.9-2-2v-71.39c0-1.1,0.9-2,2-2h0.668c1.1,0,2,0.9,2,2V85.008z"/></g></g><g><g><path d="M7.943,15.341c-1.1,0-2-0.9-2-2v-0.668c0-1.1,0.9-2,2-2h84.112c1.1,0,2,0.9,2,2v0.668c0,1.1-0.9,2-2,2H7.943z"/></g><g><path d="M94.056,85.16c0,1.1-0.9,2-2,2h-0.668c-1.1,0-2-0.9-2-2v-71.39c0-1.1,0.9-2,2-2h0.668c1.1,0,2,0.9,2,2V85.16z"/></g></g></g><g><path d="M7.944,51.299c-1.1,0-2-0.9-2-2v-0.667c0-1.1,0.9-2,2-2h84.112c1.1,0,2,0.9,2,2v0.667c0,1.1-0.9,2-2,2H7.944z"/></g></g><g><path d="M39.24,26.649c1.1,0,2,0.9,2,2v0.668c0,1.1-0.9,2-2,2H18.511c-1.1,0-2-0.9-2-2v-0.668c0-1.1,0.9-2,2-2H39.24z"/></g><g><path d="M39.24,35.168c1.1,0,2,0.596,2,1.324s-0.9,1.324-2,1.324H18.511c-1.1,0-2-0.596-2-1.324s0.9-1.324,2-1.324H39.24z"/></g></g></svg>
