<svg xmlns="http://www.w3.org/2000/svg" xmlns:xlink="http://www.w3.org/1999/xlink" version="1.1" x="0px" y="0px" viewBox="0 0 16 20" style="enable-background:new 0 0 16 16;" xml:space="preserve"><path d="M1,4v7c0,0.552,0.448,1,1,1h12c0.552,0,1-0.448,1-1V4c0-0.552-0.448-1-1-1H2C1.448,3,1,3.448,1,4z M10,5h1v1h-1V5z M8,5h1v1  H8V5z M10,7v1H9V7H10z M6,5h1v1H6V5z M8,7v1H7V7H8z M3,5h2v1H3V5z M6,7v1H5V7H6z M4,10H3V9h1V10z M4,8H3V7h1V8z M11,10H5V9h6V10z   M13,10h-1V9h1V10z M13,8h-2V7h2V8z M13,6h-1V5h1V6z"/><text x="0" y="31" fill="#000000" font-size="5px" font-weight="bold" font-family="'Helvetica Neue', Helvetica, Arial-Unicode, Arial, Sans-serif">Created by Icon Solid</text><text x="0" y="36" fill="#000000" font-size="5px" font-weight="bold" font-family="'Helvetica Neue', Helvetica, Arial-Unicode, Arial, Sans-serif">from the Noun Project</text></svg>