<svg xmlns="http://www.w3.org/2000/svg" xmlns:xlink="http://www.w3.org/1999/xlink" version="1.1" x="0px" y="0px" viewBox="0 0 252.733 278.7525" style="enable-background:new 0 0 252.733 223.002;" xml:space="preserve"><g><path d="M174.003,171.247l-34.135,34.745c-3.87,3.939-3.815,10.271,0.126,14.141c1.946,1.913,4.478,2.867,7.008,2.867   c2.589,0,5.176-0.999,7.134-2.991l29.116-29.637l-7.669-13.418C174.563,175.168,174.045,173.207,174.003,171.247z"/><path d="M79.736,170.525l11.449,3.279L80.758,206.54c-2.095,6.577,1.539,13.608,8.118,15.703c1.262,0.402,2.54,0.594,3.797,0.594   c5.296,0,10.213-3.395,11.906-8.709l14.333-45c1.027-3.229,0.708-6.71-0.892-9.696c-1.598-2.984-4.319-5.182-7.575-6.113   l-40.815-11.694c-1.074,2.483-2.031,4.989-2.813,7.504L79.736,170.525z"/><path d="M243.99,0.087c-3.267,0.558-5.461,3.659-4.903,6.926c1.159,6.78,1.646,12.743,1.646,17.971   c-0.031,16.094-4.507,25.154-8.584,30.392c-2.055,2.615-4.058,4.27-5.477,5.252c-0.708,0.49-1.27,0.808-1.61,0.988   c-0.166,0.087-0.278,0.14-0.333,0.165c-3.049,1.248-4.524,4.72-3.299,7.784c0.938,2.345,3.19,3.772,5.572,3.772   c0.743,0,1.497-0.139,2.229-0.432h-0.002c0.683-0.273,6.583-2.775,12.356-10.119c5.79-7.323,11.179-19.441,11.148-37.803   c0-5.972-0.556-12.612-1.817-19.993C250.356,1.723,247.257-0.471,243.99,0.087z"/><path d="M142.327,107.334c-4.127,0-7.626-3.227-7.964-7.347c-0.241-2.937,1.149-5.632,3.405-7.209l-24.588,9.834L87.865,87.691   c-0.714-0.918-1.559-1.74-2.573-2.412c-5.36-3.554-13.958-4.542-21.968-0.226c5.498,0.81,9.386,1.982,10.85,2.467l0.013,0.004   l0.097,0.031c2.524,0.877,4.554,2.683,5.719,5.087c1.163,2.404,1.322,5.118,0.444,7.642c-1.396,4.02-5.19,6.719-9.443,6.719   c-1.117,0-2.222-0.186-3.284-0.556l-0.147-0.048c-0.118-0.037-0.374-0.115-0.723-0.214c-0.671-0.188-1.783-0.479-3.259-0.785   c-2.623-0.543-6.764-1.192-11.604-1.189c-2.272,0-4.479,0.149-6.625,0.426c-4.821,7.267-8.216,14.482-11.097,23.54   c-1.001,3.146-1.942,6.508-2.859,10.181c-1.977,11.898,3.52,17.68,10.098,21.08l11.824,19.589l-39.287,19.813   c-6.166,3.109-8.644,10.625-5.534,16.79c2.198,4.359,6.601,6.876,11.171,6.876c1.892,0,3.813-0.431,5.617-1.342l51.335-25.888   c3.108-1.566,5.421-4.358,6.385-7.704c0.962-3.344,0.486-6.938-1.312-9.918L64.645,149.4c1.909-6.463,4.942-12.886,8.314-18.949   c4.32-7.77,9.198-14.951,12.987-20.877c0.786-1.014,1.473-2.098,2.067-3.223l20.427,12.042c1.25,0.736,2.651,1.109,4.06,1.109   c1.004,0,2.012-0.189,2.972-0.573l29.534-11.813c-0.672,0.063-1.332,0.134-2.017,0.189   C142.774,107.323,142.549,107.334,142.327,107.334z"/><path d="M147.145,90.801c-1.632-0.456-3.419-0.407-5.113,0.271l-0.908,0.363c0.185-0.028,0.369-0.059,0.559-0.074   C143.56,91.207,145.373,91.015,147.145,90.801z"/><ellipse transform="matrix(0.2268 -0.9739 0.9739 0.2268 17.1423 139.0601)" cx="96.151" cy="58.734" rx="22.494" ry="22.495"/><path d="M67.398,104.262c0.378,0.107,0.656,0.192,0.823,0.246c0.074,0.023,0.126,0.039,0.155,0.048l-0.001,0.001   c4.173,1.451,8.732-0.757,10.182-4.93c1.451-4.175-0.757-8.733-4.93-10.182v-0.002c-0.541-0.173-9.305-3.215-21.641-3.233   c-7.477,0.002-16.322,1.145-25.274,4.973c-8.946,3.808-17.917,10.396-25.224,20.672c-2.567,3.597-1.731,8.593,1.866,11.158   c1.409,1.005,3.032,1.488,4.64,1.488c2.498,0,4.958-1.166,6.52-3.354c5.664-7.91,12.023-12.464,18.495-15.257   c6.463-2.771,13.125-3.681,18.978-3.679c4.816-0.002,9.051,0.617,12.01,1.23C65.477,103.746,66.639,104.047,67.398,104.262z"/><path d="M199.093,173.751c-8.375-2.91-18.15-4.186-22.889-4.666c-0.45,2.308-0.099,4.752,1.115,6.877l24.002,41.999   c1.845,3.23,5.22,5.041,8.691,5.041c1.682,0,3.387-0.425,4.951-1.318c4.795-2.74,6.461-8.849,3.721-13.643L199.093,173.751z"/><ellipse transform="matrix(0.4555 -0.8902 0.8902 0.4555 67.3548 188.787)" cx="188.002" cy="39.334" rx="19.999" ry="19.999"/><path d="M242.502,131.251c-1.334-17.333-11.099-20.051-11.099-20.051l-0.169-0.01c-13.547-18.871-5.63-27.716-10.232-40.44   c-2.686-7.43-5.427-10.244-9.002-10.777c-7.857-1.17-13.998-0.002-20.111,10.51c-1.456,2.216-2.639,4.697-3.513,7.29   c3.884-2.341,6.047-4.185,6.622-4.7c1.502-1.448,3.478-2.248,5.567-2.248c2.17,0,4.2,0.855,5.716,2.407   c1.494,1.525,2.304,3.542,2.281,5.681c-0.025,2.137-0.878,4.136-2.405,5.632c-0.08,0.083-5.602,5.629-17.553,11.293   c1.84,3.706,4.912,5.914,8.575,6.118c2.497,8.006,3.77,13.035,4.387,16.603c-0.41,4.281-1.49,9.516-4.065,14.442   c-5.75,11-30.5,33.334-30.5,33.334s3.175,0.142,7.726,0.555c7.097,0.646,17.55,1.957,24.608,4.444   c7.272,2.564,41.599-20.776,43.128-37.983C242.527,132.641,242.555,131.938,242.502,131.251z"/><path d="M204.852,74.631c-2.309-2.362-6.092-2.41-8.463-0.115v0c-0.344,0.288-16.671,15.714-54.544,18.839   c-3.302,0.27-5.76,3.168-5.49,6.47c0.258,3.135,2.882,5.509,5.972,5.509c0.165,0,0.331-0.007,0.499-0.02   c42.243-3.44,61.218-21.459,61.934-22.198C207.127,80.797,207.17,76.998,204.852,74.631z"/></g></svg>
