<svg xmlns="http://www.w3.org/2000/svg" xmlns:xlink="http://www.w3.org/1999/xlink" version="1.1" x="0px" y="0px" viewBox="0 0 16 20" style="enable-background:new 0 0 16 16;" xml:space="preserve"><path d="M13.56,11.45L11.6,9l-0.72-0.9C10.31,7.39,10,6.51,10,5.6V3h0.5C10.776,3,11,2.776,11,2.5v-1C11,1.224,10.776,1,10.5,1h-5  C5.224,1,5,1.224,5,1.5v1C5,2.776,5.224,3,5.5,3H6v2.6c0,0.91-0.31,1.79-0.88,2.5L4.4,9l-1.96,2.45C2.15,11.81,2,12.25,2,12.7V14  c0,0.55,0.45,1,1,1h10c0.55,0,1-0.45,1-1v-1.3C14,12.25,13.85,11.81,13.56,11.45z M5.68,9L5.9,8.72C6.61,7.84,7,6.73,7,5.6V3h2v2H8  v1h1V5.81C9,6.215,9.104,6.613,9.218,7H8v1h1.628C9.764,8,9.922,8.49,10.1,8.711L10.32,9H5.68z"/><text x="0" y="31" fill="#000000" font-size="5px" font-weight="bold" font-family="'Helvetica Neue', Helvetica, Arial-Unicode, Arial, Sans-serif">Created by Icon Solid</text><text x="0" y="36" fill="#000000" font-size="5px" font-weight="bold" font-family="'Helvetica Neue', Helvetica, Arial-Unicode, Arial, Sans-serif">from the Noun Project</text></svg>