<svg xmlns="http://www.w3.org/2000/svg" xmlns:xlink="http://www.w3.org/1999/xlink" version="1.1" x="0px" y="0px" viewBox="0 0 16 20" style="enable-background:new 0 0 16 16;" xml:space="preserve"><g><rect x="11" y="5" width="1" height="1"/><path d="M11.5,2h-7C2.567,2,1,3.567,1,5.5V11c0,1.105,0.895,2,2,2c0.734,0,1.377-0.396,1.724-0.986L6.501,9h2.999l1.776,3.014   C11.623,12.604,12.266,13,13,13c1.105,0,2-0.895,2-2V5.5C15,3.567,13.433,2,11.5,2z M6,6H5v1H4V6H3V5h1V4h1v1h1V6z M13,6h-1v1h-1V6   h-1V5h1V4h1v1h1V6z"/></g><text x="0" y="31" fill="#000000" font-size="5px" font-weight="bold" font-family="'Helvetica Neue', Helvetica, Arial-Unicode, Arial, Sans-serif">Created by Icon Solid</text><text x="0" y="36" fill="#000000" font-size="5px" font-weight="bold" font-family="'Helvetica Neue', Helvetica, Arial-Unicode, Arial, Sans-serif">from the Noun Project</text></svg>