<svg xmlns="http://www.w3.org/2000/svg" xmlns:xlink="http://www.w3.org/1999/xlink" version="1.1" x="0px" y="0px" viewBox="0 0 100 125" style="enable-background:new 0 0 100 100;" xml:space="preserve"><style type="text/css">
	.st0{fill:none;}
</style><g><g><path d="M53.6,86.7c-3.6,0-7.1,0.1-10.7,0c-6.7-0.2-11.3-3.7-14.4-9.4c-2.4-4.3-2.8-8.9-2.1-13.7c0.3-1.9,0.5-3.7,0.7-5.6    c0.1-1.4-0.2-2.7-0.9-4c-2.3-3.9-4.5-8-5.6-12.5c-1.2-5-1.1-9.9,1-14.6c2.5-5.6,7-9,12.8-10.5c10.4-2.7,20.9-2.6,31.3,0.2    c5.7,1.5,10.2,4.8,12.8,10.3c2.3,5.1,2.2,10.3,0.4,15.4c-1.2,3.5-3,6.8-4.8,10c-1.2,2.2-1.6,4.4-0.9,6.9    c1.4,5.1,1.6,10.2-0.5,15.2c-1.9,4.5-4.6,8.4-9.1,10.7c-2.3,1.2-4.8,1.6-7.4,1.6C55.3,86.7,54.5,86.7,53.6,86.7    C53.6,86.7,53.6,86.7,53.6,86.7z M69.3,35c-0.3-1.5-0.5-3-1.1-4.4c-1.4-3.4-4.4-4.7-7.8-5.1c-5.4-0.7-10.9-1.3-16.4-0.2    c-2.8,0.6-5.7,1-8.5,1.8c-2.5,0.8-4.3,2.6-4.9,5.2c-0.9,4.3,0.2,8.2,2.5,11.8c0.6,1,1.7,1.4,2.9,1.2c0.8-0.2,1.6-0.5,2.4-0.8    c3.5-1.5,7.1-2.4,11-2.6c4.4-0.1,8.7,0.8,12.7,2.5c2.5,1.1,4.2,0.4,5.3-2.1C68.5,40.1,69.1,37.6,69.3,35z"/></g></g></svg>
