<svg xmlns="http://www.w3.org/2000/svg" xmlns:xlink="http://www.w3.org/1999/xlink" version="1.1" x="0px" y="0px" viewBox="0 0 512 640" enable-background="new 0 0 512 512" xml:space="preserve"><path d="M446.875,372.719C447.531,376.406,448,380.125,448,384c0,35.344-28.656,64-64,64c0,17.688-14.313,32-32,32s-32-14.313-32-32  V320c0-17.688,14.313-32,32-32s32,14.313,32,32c17.625,0,33.594,7.125,45.156,18.688C441.188,313.625,448,285.594,448,256  c0-105.875-86.125-192-192-192S64,150.125,64,256c0,29.594,6.813,57.625,18.844,82.656C94.422,327.125,110.375,320,128,320  c0-17.688,14.313-32,32-32s32,14.313,32,32v128c0,17.688-14.313,32-32,32s-32-14.313-32-32c-35.344,0-64-28.656-64-64  c0-3.875,0.484-7.625,1.141-11.281C44.266,338.719,32,298.844,32,256C32,132.281,132.281,32,256,32s224,100.281,224,224  C480,298.844,467.75,338.719,446.875,372.719z"/><text x="0" y="527" fill="#000000" font-size="5px" font-weight="bold" font-family="'Helvetica Neue', Helvetica, Arial-Unicode, Arial, Sans-serif">Created by Icon Solid</text><text x="0" y="532" fill="#000000" font-size="5px" font-weight="bold" font-family="'Helvetica Neue', Helvetica, Arial-Unicode, Arial, Sans-serif">from the Noun Project</text></svg>