<svg xmlns="http://www.w3.org/2000/svg" data-name="Слой 1" viewBox="0 0 100 125" x="0px" y="0px"><title>пингвин</title><g><path d="M50.18742,81.22924c-0.49332.07407-1.07281-.01356-1.67053,0.10487a1.02033,1.02033,0,0,0-.87987,1.19131,5.05281,5.05281,0,0,1-.55595,2.60079c-0.65923,1.52445-1.89818,1.79506-3.24316.79753-0.57408-.42578-1.20332-0.77713-1.7779-1.20231-0.34991-.25894-0.46572.04473-0.6434,0.19638a6.687,6.687,0,0,1-1.91781,1.452c-1.47945.57056-2.70689-.06223-2.79973-1.65365a2.39562,2.39562,0,0,1,.11327-1.358,0.58086,0.58086,0,0,0-.00259-0.65245c-0.21747-.23775-0.47323-0.0145-0.70978.0683-0.73291.25653-1.4627,0.52419-2.20426,0.75324a1.5643,1.5643,0,0,1-1.71841-.37592,1.39374,1.39374,0,0,1-.00017-1.65021,21.54125,21.54125,0,0,1,1.42971-2.8601,0.51622,0.51622,0,0,0,.03268-0.81059,17.02049,17.02049,0,0,1-3.49561-6.1023c-0.79612-2.2466-1.71578-4.45117-2.6352-6.65164-0.45846-1.09731-1.12594-1.12935-2.8518-1.00323-2.76592.2021-5.44482,1.089-8.25284,0.93165a3.75265,3.75265,0,0,1-3.48017-3.47724,0.88612,0.88612,0,0,1,.32153-0.87473c1.75383-1.09762,3.33173-2.44383,4.959-3.70321a37.726,37.726,0,0,0,4.23628-3.78532A59.3842,59.3842,0,0,0,26.7374,48.3355,14.60414,14.60414,0,0,0,29.738,41.58526a55.825,55.825,0,0,0,.33833-6.60263,38.68783,38.68783,0,0,1,.25767-6.36507A12.76609,12.76609,0,0,1,31.3592,25.896c1.09174-2.45134,1.93533-5.09383,4.1022-6.87274a24.75173,24.75173,0,0,1,6.22054-3.9523,22.25214,22.25214,0,0,1,7.28656-1.83167,18.75511,18.75511,0,0,1,3.93213.43209,32.42361,32.42361,0,0,1,4.61981,1.057,14.06353,14.06353,0,0,1,3.22649,1.97216c0.79,0.51862,1.47994,1.18714,2.25358,1.73351a9.53307,9.53307,0,0,1,3.28858,4.05111c0.64611,1.44559,1.221,2.91645,1.81041,4.3813a5.53071,5.53071,0,0,1,.26142,1.63206c0.14866,1.98184.248,3.96757,0.41263,5.94794a24.99768,24.99768,0,0,1-.23393,3.42612,8.37249,8.37249,0,0,0,.38116,3.31454A23.48062,23.48062,0,0,0,71.543,47.00821c0.655,0.92819,1.32688,1.85077,2.06545,2.71216,1.22567,1.42942,2.43955,2.88141,3.78879,4.18936a21.33441,21.33441,0,0,0,6.81528,3.92593,11.30435,11.30435,0,0,1,1.92532,1.0808,1.73632,1.73632,0,0,1,.01663,3.07506A8.53343,8.53343,0,0,1,82.97054,63.607c-1.67145.29192-3.26286,0.90383-4.983,1.03342a19.966,19.966,0,0,1-4.6984-.54594c-0.71541-.11315-0.91686-0.04091-0.98057.70124a47.36437,47.36437,0,0,1-1.10308,4.81376,18.25139,18.25139,0,0,1-.56306,2.46573,13.50711,13.50711,0,0,1-4.53362,6.91588c-0.5669.416-.45327,0.59136-0.06461,1.0054a3.72679,3.72679,0,0,1,1.221,1.70525,2.03953,2.03953,0,0,1-.24943,2.14805,2.41845,2.41845,0,0,1-2.57349.41073,6.69249,6.69249,0,0,1-1.48653-.74287c-0.56219-.339-0.89505-0.359-1.17658.37175a5.80792,5.80792,0,0,1-.73554,1.46316c-1.36667,1.8126-2.58567,1.89643-4.03469.19516-0.81831-.96076-0.97434-0.97481-1.95365-0.17582a2.46969,2.46969,0,0,1-2.401.2164c-0.92476-.66583-0.42719-1.62142-0.46987-2.46155a1.75031,1.75031,0,0,1,.19913-0.54242c0.33925-1.01078.13531-1.31424-.91944-1.35277C51.0686,81.21714,50.67214,81.22924,50.18742,81.22924ZM40.23794,82.4225a0.94738,0.94738,0,0,0-.53714-0.95441c-0.91306-.18982-1.60877-0.88986-2.52708-1.00649-0.27055-.03436-0.89377-0.77139-0.81836.29659,0.00628,0.08913-.36852.172-0.40657,0.01812-0.1825-.73814-0.80528-0.2109-1.17716-0.42691,0.31718-.50856.8565-0.171,1.24288-0.36509-1.14131-.98869-1.4379-0.98173-1.836.16056a2.54245,2.54245,0,0,1-.56044,1.07574,0.98537,0.98537,0,0,0-.17943.8808c0.111,0.26027.45626-.01109,0.70224-0.03426a11.52722,11.52722,0,0,0,2.80667-.7871c0.308-.11063.75421-0.30628,0.939,0.16543,0.14136,0.3607.82409,0.6215,0.56306,0.87914-0.47379.46769-.27674,1.03559-0.54527,1.43852,0.70821,0.3622.77743-.62385,1.34726-0.53419,0.11117,0.19824-.66634.43275-0.02794,0.55,0.63615,0.11683.42165,0.28981,0.17379,0.59647-0.23072.28547-.42076,0.60381-0.72223,1.04436a4.83538,4.83538,0,0,0,1.59364-.95549,0.36942,0.36942,0,0,0,.103-0.59355c-0.77439-.79363.33594-0.67368,0.48167-1.01768,0.7873,0.53533.9857-.353,1.71909-0.79251-0.60378.85743,0.12569,1.28319,0.277,1.06017,0.497-.73261,1.18478-0.11084,1.71049-0.39081-0.4203.33035-.84057,0.66072-1.28722,1.0118,0.61176,0.36839.86643,1.31359,1.85228,1.2045-0.01281-.32115-0.46782-0.36789-0.30234-0.7546a1.1451,1.1451,0,0,0,1.53045-1.05329,0.44381,0.44381,0,0,0-.45972-0.10225c-0.22908.03764-.57021,0.41127-0.62979-0.09533-0.05854-.4978.29867-0.159,0.50475-0.18077a0.5337,0.5337,0,0,0,.60236-0.49421,0.45067,0.45067,0,0,0-.53995-0.43612,0.94883,0.94883,0,0,0-.9053.22651,0.57827,0.57827,0,0,1-.73173.10807A4.12341,4.12341,0,0,0,40.23794,82.4225Zm1.86088-58.446c-0.71986-.22284-1.51274.33077-2.37388,0.59523a7.1631,7.1631,0,0,0-4.11,2.94913,17.0861,17.0861,0,0,0-1.691,4.53747,4.3511,4.3511,0,0,0,.48846,3.84375c0.63927,0.97286,1.18968,2.004,1.82506,2.97961,0.3355,0.51523.7048,1.02032,1.042,1.52879,0.5362,0.80851.01719,1.69121-.19129,2.50815-0.30715,1.20339-1.19993,2.14682-1.63408,3.29486a35.29112,35.29112,0,0,0-2.44308,7.67275,32.6101,32.6101,0,0,0-.47587,7.35516,18.11776,18.11776,0,0,0,3.30591,8.58408c0.47877,0.70613,1.14,1.28562,1.563,1.99806a11.6579,11.6579,0,0,0,3.99541,3.874,24.94735,24.94735,0,0,0,7.249,2.57248,8.4887,8.4887,0,0,0,5.36715-.20055,8.01174,8.01174,0,0,1,1.04161-.26561,6.10545,6.10545,0,0,0,2.85161-1.61468c0.76136-.73083,1.30556-1.64411,2.10008-2.32845a7.06869,7.06869,0,0,0,2.6286-3.42956,1.22667,1.22667,0,0,1,.29489-0.49168,10.54568,10.54568,0,0,0,2.11241-3.95587c0.22828-.66423.05644-1.40842,0.30908-1.92622a13.72309,13.72309,0,0,0,1.01352-5.51247c0.05028-.96864-0.18-2.01355-0.08269-2.91708a17.0498,17.0498,0,0,0-.45965-5.41886,20.78088,20.78088,0,0,0-2.65308-7.06466,3.54874,3.54874,0,0,1-.01926-4.07867,19.18528,19.18528,0,0,0,1.11968-2.33221,13.60263,13.60263,0,0,0,.63472-4.7946,4.67306,4.67306,0,0,0-1.25238-3.69444c-2.03349-1.91216-4.21151-3.56819-7.09935-4.03329a6.08428,6.08428,0,0,0-5.60665,2.33223c-0.367.55925-.76972,0.65612-1.24083,0.09545a2.3177,2.3177,0,0,0-.76835-0.746C46.79679,25.08314,44.7354,23.96862,42.09882,23.97654ZM56.63551,81.05678c0.87531,0.40561.88485,0.43264,0.27889,1.03253a0.93644,0.93644,0,0,0-.4303,1.15917,1.10623,1.10623,0,0,0,1.20286.121c0.38551-.10725.23236-0.57373,0.12192-0.84675a0.63414,0.63414,0,0,1,.17051-0.93369c0.336-.20118.66064-0.5627,1.08045-0.07706a0.91844,0.91844,0,0,0,.5646.09107c1.06991,0.02653,1.76028-.91636,2.77421-1.08555C60.46858,80.76458,58.54631,80.89486,56.63551,81.05678Zm3.42513,2.47113c-0.46927-.13883-0.84625-0.634-1.06172.14195a0.48181,0.48181,0,0,1-.63.32237c-0.30969-.07094-0.716-0.21119-0.81072.15679a0.87392,0.87392,0,0,0,.56876.73134c0.18868,0.12587.35849,0.27992,0.54655,0.40687a0.35492,0.35492,0,0,0,.52259-0.0121c0.13113-.19807-0.02229-0.355-0.21559-0.45584-0.517-.26951-0.3947-0.38586.0446-0.67959A10.35205,10.35205,0,0,0,60.06064,83.52791Zm-6.23248-1.36882a2.65085,2.65085,0,0,0-.53649,1.53418,1.50087,1.50087,0,0,0,.64507.8725,0.34875,0.34875,0,0,0,.49438-0.14721c0.13722-.43006-0.24445-0.54533-0.519-0.69578-0.37041-.20293-0.45909-0.39488-0.10561-0.72549A0.7928,0.7928,0,0,0,53.82816,82.15909Zm8.90722-1.59849a1.39979,1.39979,0,0,0,1.39306.12244c0.14607-.09875.52776,0.14617,0.44967-0.27644a0.47423,0.47423,0,0,0-.58718-0.38336A3.33213,3.33213,0,0,0,62.73538,80.5606ZM56.057,81.67477c-0.58133-.14809-0.84635.42-1.332,0.18837-0.205-.09779-0.39366.18668-0.44437,0.42338a0.4635,0.4635,0,0,0,.03986.3656c0.22538,0.18923.41469-.02521,0.57536-0.14334A3.72825,3.72825,0,0,0,56.057,81.67477Zm7.6975,0.58144c-0.44162-1.07522-.77881-1.21529-1.84362-0.73A6.26187,6.26187,0,0,1,63.75448,82.25621Z"/><path d="M45.66238,36.32307c1.04187-.12332,2.30562-0.24855,3.56076-0.43273a15.07313,15.07313,0,0,1,1.545.19416,17.41875,17.41875,0,0,0,3.23487-.17876,3.86661,3.86661,0,0,1,2.95818.67061,1.96048,1.96048,0,0,1,.45155,2.15851c-1.45523,2.02869-2.25382,4.478-4.0309,6.29063a4.24115,4.24115,0,0,1-5.284.40293,13.29174,13.29174,0,0,1-3.11928-2.44074A22.699,22.699,0,0,1,42.071,38.5044a0.92774,0.92774,0,0,1,.27662-1.07116A3.72131,3.72131,0,0,1,45.66238,36.32307Zm7.0182,6.21066A0.81618,0.81618,0,0,1,52.633,42.81c-0.14259.23212-.5376,0.47061-0.18484,0.72873,0.34375,0.25151.592-.12921,0.79725-0.37083a1.84746,1.84746,0,0,0,.266-0.51712,8.84722,8.84722,0,0,1,.937-1.69332A9.68082,9.68082,0,0,0,55.98,38.4916c0.11564-.37158.25484-0.79619-0.1524-0.93963a4.54065,4.54065,0,0,0-1.66681-.49823c-1.99049.04713-3.98279,0.01329-5.97435,0.02094-0.44563.00172-.965-0.10318-1.0132,0.61076a0.28161,0.28161,0,0,1-.44328.17834c-0.29912-.83576-0.73547-0.19337-1.0972-0.112a4.71056,4.71056,0,0,1-1.42011.30768c-0.68725-.05607-0.71186.28934-0.46917,0.77609a3.90462,3.90462,0,0,0,.42441.66076A15.02743,15.02743,0,0,0,46.6,42.1787a11.42089,11.42089,0,0,1,2.47641,2.19376c0.65609,0.91161,2.28234.677,3.01484-.17857,0.07418-.08667.05134-0.09014,0.00457-0.18338C51.62213,43.06635,51.69329,42.89261,52.68059,42.53374Z"/><path d="M43.84559,35.48652a4.12563,4.12563,0,0,1-3.7403-2.48255,0.46953,0.46953,0,0,1-.0249-0.37836c0.63835-1.22137.993-2.64817,2.25645-3.43874a2.84325,2.84325,0,0,1,3.28387.07177,3.07219,3.07219,0,0,1,.86568,3.60505,5.42409,5.42409,0,0,1-1.32434,2.149A1.54173,1.54173,0,0,1,43.84559,35.48652Zm0.56064-3.28559c-0.17215-.24869-0.02727-0.84136-0.4837-0.87406-0.54239-.03886-0.58191.56616-0.64065,0.94074a0.5102,0.5102,0,0,0,.48607.68318A0.60637,0.60637,0,0,0,44.40623,32.20093Z"/><path d="M59.45859,31.32573c-0.09006,2.11147-1.41124,3.70305-3.02475,3.55586a2.71951,2.71951,0,0,1-2.30054-2.91293,3.47111,3.47111,0,0,1,3.02059-3.21215A2.23677,2.23677,0,0,1,59.45859,31.32573Zm-2.37588.52948c-0.00527-.29986.01453-0.65027-0.32861-0.594a0.62656,0.62656,0,0,0-.469.74138c0.0183,0.26157.01414,0.63645,0.29709,0.60681A0.59265,0.59265,0,0,0,57.08271,31.85521Z"/><path d="M52.49043,41.21892c0.27157,0.05547.653-.09432,0.61053,0.33008-0.07189.71775-.77088,0.42355-1.16181,0.62009-0.335.16842-.164-0.41226-0.42574-0.48033A0.98669,0.98669,0,0,1,52.49043,41.21892Z"/><path d="M52.86021,39.26677a0.52272,0.52272,0,0,1,.59056.4549c-0.03809.39279-.56533,0.37647-0.792,0.68356-0.09016.12218-.381-0.13545-0.34319-0.33083A1.07975,1.07975,0,0,1,52.86021,39.26677Z"/></g></svg>
