<svg xmlns="http://www.w3.org/2000/svg" xmlns:xlink="http://www.w3.org/1999/xlink" version="1.1" x="0px" y="0px" viewBox="0 0 16 20" style="enable-background:new 0 0 16 16;" xml:space="preserve"><g><path style="" d="M12,1.5   c-2.5,1.333-5.5,1.333-8,0H1.5v5.571c0,3.735,3.595,6.047,5.339,7.1C7.202,14.39,7.601,14.5,8,14.5s0.797-0.11,1.161-0.329   c1.744-1.052,5.339-3.365,5.339-7.1V1.5H12z" fill="none" stroke="#000000" stroke-linecap="round" stroke-linejoin="round" stroke-miterlimit="10"/><path style="" d="M3.5,5.5   c0.252,0.606,0.844,1,1.5,1s1.248-0.394,1.5-1" fill="none" stroke="#000000" stroke-linecap="round" stroke-linejoin="round" stroke-miterlimit="10"/><path style="" d="M9.5,5.5   c0.252,0.606,0.844,1,1.5,1s1.248-0.394,1.5-1" fill="none" stroke="#000000" stroke-linecap="round" stroke-linejoin="round" stroke-miterlimit="10"/><path style="" d="M5.5,10   c0.492,0.923,1.454,1.5,2.5,1.5s2.008-0.577,2.5-1.5" fill="none" stroke="#000000" stroke-linecap="round" stroke-linejoin="round" stroke-miterlimit="10"/></g></svg>
