<svg xmlns="http://www.w3.org/2000/svg" xmlns:xlink="http://www.w3.org/1999/xlink" version="1.1" x="0px" y="0px" viewBox="0 0 85 106.25" style="enable-background:new 0 0 85 85;" xml:space="preserve"><g><g><path d="M15.8,44.5c0,9.5,0,18.9,0,28.4c0,1.2,1,2.2,2.2,2.2c7.8,0,15.6,0,23.4,0c1.2,0,2.2-1,2.2-2.2c0-4.5,0-9,0-13.4    c0-2.9-4.5-2.9-4.5,0c0,4.5,0,9,0,13.4c0.8-0.8,1.5-1.5,2.2-2.2c-7.8,0-15.6,0-23.4,0c0.8,0.8,1.5,1.5,2.2,2.2    c0-9.5,0-18.9,0-28.4C20.3,41.6,15.8,41.6,15.8,44.5L15.8,44.5z"/></g><g><path d="M51.3,75.2c5.1,0,10.3,0,15.4,0c1.2,0,2.2-1,2.2-2.2c0-9.4,0-18.9,0-28.3c0-2.9-4.5-2.9-4.5,0c0,9.4,0,18.9,0,28.3    c0.8-0.8,1.5-1.5,2.2-2.2c-5.1,0-10.3,0-15.4,0C48.4,70.7,48.4,75.2,51.3,75.2L51.3,75.2z"/></g></g><g><path d="M8.4,43.5c11.7-9.3,23.4-18.6,35.1-27.9c-1.1,0-2.1,0-3.2,0c12,9.3,24,18.6,36.1,27.9c2.3,1.7,5.5-1.4,3.2-3.2   c-12-9.3-24-18.6-36.1-27.9c-1.1-0.8-2.1-0.8-3.2,0C28.6,21.7,16.9,31,5.2,40.3C2.9,42.1,6.2,45.3,8.4,43.5L8.4,43.5z"/></g><g><g><path d="M28.6,45.5c8-7.5,19.7-7.5,27.7,0c2.1,2,5.3-1.2,3.2-3.2c-9.8-9.2-24.2-9.2-34.1,0C23.3,44.3,26.5,47.5,28.6,45.5    L28.6,45.5z"/></g><g><path d="M36,53.2c3.8-3.5,9.2-3.5,13,0c2.1,2,5.3-1.2,3.2-3.2c-5.6-5.2-13.7-5.2-19.3,0C30.7,51.9,33.9,55.1,36,53.2L36,53.2z"/></g></g><circle cx="41.7" cy="60.1" r="3.8"/></svg>
