<svg xmlns="http://www.w3.org/2000/svg" xmlns:xlink="http://www.w3.org/1999/xlink" version="1.1" x="0px" y="0px" viewBox="0 0 16 20" style="enable-background:new 0 0 16 16;" xml:space="preserve"><path d="M14,4H7.707l2.146-2.146c0.195-0.195,0.195-0.512,0-0.707s-0.512-0.195-0.707,0L7,3.293L4.854,1.146  c-0.195-0.195-0.512-0.195-0.707,0s-0.195,0.512,0,0.707L6.293,4H2C1.448,4,1,4.448,1,5v8c0,0.552,0.448,1,1,1h12  c0.552,0,1-0.448,1-1V5C15,4.448,14.552,4,14,4z M11,13H2V5h9V13z M14,11h-2v-1h2V11z M13,8c-0.552,0-1-0.448-1-1  c0-0.552,0.448-1,1-1s1,0.448,1,1C14,7.552,13.552,8,13,8z"/><text x="0" y="31" fill="#000000" font-size="5px" font-weight="bold" font-family="'Helvetica Neue', Helvetica, Arial-Unicode, Arial, Sans-serif">Created by Icon Solid</text><text x="0" y="36" fill="#000000" font-size="5px" font-weight="bold" font-family="'Helvetica Neue', Helvetica, Arial-Unicode, Arial, Sans-serif">from the Noun Project</text></svg>