<svg xmlns="http://www.w3.org/2000/svg" xmlns:xlink="http://www.w3.org/1999/xlink" version="1.1" x="0px" y="0px" viewBox="0 0 16 20" style="enable-background:new 0 0 16 16;" xml:space="preserve"><path d="M8,1C4.134,1,1,4.134,1,8c0,3.866,3.134,7,7,7s7-3.134,7-7C15,4.134,11.866,1,8,1z M2,8c0-0.217,0.013-0.432,0.036-0.643  L6,10v1c0,0.552,0.448,1,1,1v1.91C4.167,13.431,2,10.967,2,8z M12,12.459V12c0-0.552-0.448-1-1-1h-1V9c0-0.552-0.448-1-1-1H5V7h1  c0.552,0,1-0.448,1-1V5h2c0.552,0,1-0.448,1-1V2.35c2.327,0.826,4,3.044,4,5.65C14,9.771,13.224,11.36,12,12.459z"/></svg>
